<svg width="24" height="24" viewBox="0 0 6.3500001 6.3500001" xmlns:xlink="http://www.w3.org/1999/xlink" xmlns="http://www.w3.org/2000/svg"><defs><linearGradient id="a"><stop offset="0" stop-color="#fff"/><stop offset="1" stop-color="#eaf2fd"/></linearGradient><linearGradient xlink:href="#a" id="b" x1="1.1770842" y1="1.433678" x2="6.0585084" y2="4.7682991" gradientUnits="userSpaceOnUse"/></defs><path fill="url(#b)" d="M0 1.058H6.35V5.292H0z"/><path fill="none" d="M0 .864H33.867V34.731H0z"/><path fill="#5e81ac" d="M0 1.058H6.35V1.323H0z"/><path d="M 0.52916667,2.1166357 V 3.174969 l 0.45586448,6.2e-5 C 1.1338067,3.1750512 1.3018451,3.086802 1.3826768,3.0012847 c 0.082002,-0.085515 0.123003,-0.2073462 0.123003,-0.3654941 0,-0.1569765 -0.041001,-0.2782222 -0.123003,-0.3637371 C 1.3018451,2.1865366 1.1338067,2.1167179 0.98503115,2.1166977 Z M 0.26458333,1.8520833 h 0.72044782 c 0.26475145,0 0.46448595,0.066774 0.59920345,0.2003217 0.1358897,0.1323745 0.2038345,0.3268364 0.2038345,0.5833856 0,0.2588937 -0.067945,0.4545279 -0.2038345,0.5869025 C 1.4495171,3.3550676 1.2495667,3.4503042 0.98503115,3.4396143 l -0.45586448,-6.2e-5 v 1.0583023 l -0.26458334,6.21e-5 z" style="line-height:1.25;-inkscape-font-specification:'DejaVu Sans Semi-Condensed';white-space:pre" font-stretch="semi-condensed" font-size="12.75px" font-family="DejaVu Sans" fill="#5e81ac" stroke-width=".52916667" stroke="#fff" stroke-linejoin="round" stroke-linecap="round"/><path d="M 0.52916667,2.1166357 V 3.174969 l 0.45586448,6.2e-5 c 0.14877555,2.02e-5 0.31681395,-0.088229 0.39764565,-0.1737463 0.082002,-0.085515 0.123003,-0.2073462 0.123003,-0.3654941 0,-0.1569765 -0.041001,-0.2782222 -0.123003,-0.3637371 C 1.3018451,2.1865366 1.1338067,2.1167179 0.98503115,2.1166977 Z M 0.26458333,1.8520833 h 0.72044782 c 0.26475145,0 0.46448595,0.066774 0.59920345,0.2003217 0.1358897,0.1323745 0.2038345,0.3268364 0.2038345,0.5833856 0,0.2588937 -0.067945,0.4545279 -0.2038345,0.5869025 C 1.4495171,3.3550676 1.2495667,3.4503042 0.98503115,3.4396143 l -0.45586448,-6.2e-5 v 1.0583023 l -0.26458334,6.21e-5 z" style="line-height:1.25;-inkscape-font-specification:'DejaVu Sans Semi-Condensed';white-space:pre" font-stretch="semi-condensed" font-size="12.75px" font-family="DejaVu Sans" fill="#416ca0"/><path d="M 3.8754102,2.0946299 V 2.458454 Q 3.719854,2.2961851 3.5440039,2.2159056 3.3681566,2.135625 3.1703292,2.135625 q -0.388895,0 -0.5968664,0.2681683 -0.2062824,0.2664651 -0.2062824,0.7720586 0,0.5038885 0.2062824,0.7720567 0.2079714,0.2664643 0.5968664,0.2664643 0.1978274,0 0.3736747,-0.08028 0.1758501,-0.08028 0.3314063,-0.2425493 v 0.3604072 q -0.1606297,0.1229823 -0.3415504,0.184474 -0.1809206,0.061492 -0.3804401,0.061492 -0.5173976,0 -0.8132929,-0.353573 Q 2.044229,3.7890569 2.044229,3.1758534 q 0,-0.614912 0.2958978,-0.9684886 0.2958953,-0.3552816 0.8132929,-0.3552816 0.2029008,0 0.3838214,0.061493 0.1809206,0.059781 0.3381691,0.1810568 z" style="line-height:1.25;-inkscape-font-specification:'DejaVu Sans Semi-Condensed';white-space:pre" font-stretch="semi-condensed" font-size="12.75px" font-family="DejaVu Sans" fill="#fff" stroke-width=".52916667" stroke="#fff" stroke-linecap="round" stroke-linejoin="round"/><path d="M 3.8754102,2.0946299 V 2.458454 Q 3.719854,2.2961851 3.5440039,2.2159056 3.3681566,2.135625 3.1703292,2.135625 q -0.388895,0 -0.5968664,0.2681683 -0.2062824,0.2664651 -0.2062824,0.7720586 0,0.5038885 0.2062824,0.7720567 0.2079714,0.2664643 0.5968664,0.2664643 0.1978274,0 0.3736747,-0.08028 0.1758501,-0.08028 0.3314063,-0.2425493 v 0.3604072 q -0.1606297,0.1229823 -0.3415504,0.184474 -0.1809206,0.061492 -0.3804401,0.061492 -0.5173976,0 -0.8132929,-0.353573 Q 2.044229,3.7890569 2.044229,3.1758534 q 0,-0.614912 0.2958978,-0.9684886 0.2958953,-0.3552816 0.8132929,-0.3552816 0.2029008,0 0.3838214,0.061493 0.1809206,0.059781 0.3381691,0.1810568 z" style="line-height:1.25;-inkscape-font-specification:'DejaVu Sans Semi-Condensed';white-space:pre" font-stretch="semi-condensed" font-size="12.75px" font-family="DejaVu Sans" fill="#416ca0"/><path d="m 5.3601501,3.257406 c 0.069579,0.025992 0.1367979,0.08152 0.2016578,0.1665845 0.064861,0.085063 0.1303121,0.2020253 0.1963523,0.3508856 L 6.0854166,4.4979169 H 5.7387023 L 5.4344445,3.8191806 C 5.3566106,3.6419639 5.2840464,3.5642128 5.2097513,3.5063233 5.1366345,3.4484338 5.0315422,3.4580823 4.9055308,3.4395742 l -0.4076141,1.83e-5 V 4.4979352 L 4.2333333,4.4979169 V 1.8520834 h 0.7252665 c 0.2724169,0 0.4752554,0.063208 0.6085155,0.1896227 0.1332601,0.1264145 0.1998901,0.3172163 0.1998901,0.5724054 0,0.1665834 -0.034789,0.304812 -0.104368,0.4146858 C 5.5942395,3.1386716 5.4934104,3.2148745 5.3601501,3.257406 Z M 4.4979167,2.1166758 v 1.0583333 l 0.4606831,-1.83e-5 c 0.1556675,-6.1e-6 0.3342829,-0.1405495 0.4132946,-0.2197067 0.079012,-0.080338 0.118518,-0.1978912 0.118518,-0.3526595 0,-0.1547675 -0.039506,-0.2711392 -0.118518,-0.3491151 C 5.2928827,2.174354 5.1142673,2.1166513 4.9585998,2.1166575 Z" style="line-height:1.25;-inkscape-font-specification:'DejaVu Sans Semi-Condensed';white-space:pre" font-stretch="semi-condensed" font-size="12.75px" font-family="DejaVu Sans" fill="#fff" stroke-width=".52916667" stroke="#fff" stroke-linecap="round" stroke-linejoin="round"/><path d="m 5.3601501,3.257406 c 0.069579,0.025992 0.1367979,0.08152 0.2016578,0.1665845 0.064861,0.085063 0.1303121,0.2020253 0.1963523,0.3508856 L 6.0854166,4.4979169 H 5.7387023 L 5.4344445,3.8191806 C 5.3566106,3.6419639 5.2840464,3.5642128 5.2097513,3.5063233 5.1366345,3.4484338 5.0315422,3.4580823 4.9055308,3.4395742 l -0.4076141,1.83e-5 V 4.4979352 L 4.2333333,4.4979169 V 1.8520834 h 0.7252665 c 0.2724169,0 0.4752554,0.063208 0.6085155,0.1896227 0.1332601,0.1264145 0.1998901,0.3172163 0.1998901,0.5724054 0,0.1665834 -0.034789,0.304812 -0.104368,0.4146858 C 5.5942395,3.1386716 5.4934104,3.2148745 5.3601501,3.257406 Z M 4.4979167,2.1166758 v 1.0583333 l 0.4606831,-1.83e-5 c 0.1556675,-6.1e-6 0.3342829,-0.1405495 0.4132946,-0.2197067 0.079012,-0.080338 0.118518,-0.1978912 0.118518,-0.3526595 0,-0.1547675 -0.039506,-0.2711392 -0.118518,-0.3491151 C 5.2928827,2.174354 5.1142673,2.1166513 4.9585998,2.1166575 Z" style="line-height:1.25;-inkscape-font-specification:'DejaVu Sans Semi-Condensed';white-space:pre" font-stretch="semi-condensed" font-size="12.75px" font-family="DejaVu Sans" fill="#416ca0"/><path fill="#5e81ac" d="M0 5.027H6.35V5.292H0z"/><path fill="#767c83" fill-opacity=".21049716" d="M.265 5.292H6.35V5.556H.265z"/></svg>